<svg xmlns="http://www.w3.org/2000/svg" viewBox="0 0 1440 900" width="1440" height="900">
  <defs>
    <linearGradient id="base" x1="0" x2="0" y1="0" y2="1">
      <stop offset="0%" stop-color="#0b0f17"/>
      <stop offset="100%" stop-color="#0a0d15"/>
    </linearGradient>
    <pattern id="bags" x="0" y="0" width="180" height="180" patternUnits="userSpaceOnUse">
      <rect width="180" height="180" fill="none"/>
      <!-- Hermes-inspired orange tote silhouette -->
      <g transform="translate(30,30)">
        <rect x="8" y="28" width="64" height="44" rx="6" fill="#ff7a00"/>
        <path d="M12 28c0-12 10-22 22-22h12c12 0 22 10 22 22" fill="none" stroke="#ff7a00" stroke-width="6"/>
      </g>
      <!-- LV-inspired dark monogram satchel silhouette -->
      <g transform="translate(100,90)">
        <rect x="-4" y="-2" width="64" height="44" rx="8" fill="#3b2b1f"/>
        <path d="M0 0c0-10 8-18 18-18h10c10 0 18 8 18 18" fill="none" stroke="#6b4a2a" stroke-width="5"/>
        <!-- simple monogram crosses -->
        <g fill="#b38b52" opacity="0.5">
          <rect x="6" y="10" width="4" height="4"/>
          <rect x="18" y="18" width="4" height="4"/>
          <rect x="30" y="12" width="4" height="4"/>
          <rect x="42" y="20" width="4" height="4"/>
        </g>
      </g>
    </pattern>
    <radialGradient id="glow" cx="50%" cy="0%" r="75%">
      <stop offset="0%" stop-color="#ff7a00" stop-opacity="0.18"/>
      <stop offset="100%" stop-color="#ff7a00" stop-opacity="0"/>
    </radialGradient>
  </defs>
  <rect width="100%" height="100%" fill="url(#base)"/>
  <rect width="100%" height="100%" fill="url(#glow)"/>
  <rect width="100%" height="100%" fill="url(#bags)" opacity="0.35"/>
</svg>

