<svg xmlns="http://www.w3.org/2000/svg" viewBox="0 0 1440 900" width="1440" height="900">
  <defs>
    <linearGradient id="sky" x1="0" x2="0" y1="0" y2="1">
      <stop offset="0%" stop-color="#0a1630"/>
      <stop offset="100%" stop-color="#050b18"/>
    </linearGradient>
    <radialGradient id="aurora" cx="50%" cy="0%" r="70%">
      <stop offset="0%" stop-color="#1e3a8a" stop-opacity="0.6"/>
      <stop offset="100%" stop-color="#1e3a8a" stop-opacity="0"/>
    </radialGradient>
  </defs>
  <rect width="100%" height="100%" fill="url(#sky)"/>
  <rect width="100%" height="100%" fill="url(#aurora)"/>
  <g fill="#fff" opacity="0.9">
    <circle cx="100" cy="80" r="1"/>
    <circle cx="340" cy="120" r="1.2"/>
    <circle cx="680" cy="60" r="1"/>
    <circle cx="920" cy="140" r="1.1"/>
    <circle cx="1200" cy="90" r="1.2"/>
  </g>
  <path d="M0 760 C 240 720, 480 820, 720 780 C 980 740, 1200 840, 1440 800 L 1440 900 L 0 900 Z" fill="#e6f0ff"/>
  <g transform="translate(220, 460)">
    <polygon points="0,260 120,0 240,260" fill="#065f46"/>
    <polygon points="20,220 120,20 220,220" fill="#047857"/>
    <polygon points="40,190 120,60 200,190" fill="#059669"/>
    <rect x="105" y="260" width="30" height="40" fill="#6b4f2a"/>
    <polygon points="120,0 128,18 148,18 132,30 138,48 120,38 102,48 108,30 92,18 112,18" fill="#fde047"/>
  </g>
</svg>

