<svg xmlns="http://www.w3.org/2000/svg" viewBox="0 0 1440 900" width="1440" height="900">
  <defs>
    <!-- Vibrant Vogue-inspired gradient base -->
    <linearGradient id="base" x1="0" x2="1" y1="0" y2="1">
      <stop offset="0%" stop-color="#0b0b0f"/>
      <stop offset="30%" stop-color="#1a1030"/>
      <stop offset="65%" stop-color="#101a2e"/>
      <stop offset="100%" stop-color="#0b131a"/>
    </linearGradient>

    <!-- Color halos -->
    <radialGradient id="halo-pink" cx="15%" cy="10%" r="45%">
      <stop offset="0%" stop-color="#ff2f87" stop-opacity="0.85"/>
      <stop offset="60%" stop-color="#ff2f87" stop-opacity="0.25"/>
      <stop offset="100%" stop-color="#ff2f87" stop-opacity="0"/>
    </radialGradient>
    <radialGradient id="halo-purple" cx="85%" cy="25%" r="50%">
      <stop offset="0%" stop-color="#7c3aed" stop-opacity="0.8"/>
      <stop offset="60%" stop-color="#7c3aed" stop-opacity="0.25"/>
      <stop offset="100%" stop-color="#7c3aed" stop-opacity="0"/>
    </radialGradient>
    <radialGradient id="halo-cyan" cx="55%" cy="85%" r="55%">
      <stop offset="0%" stop-color="#00e5ff" stop-opacity="0.7"/>
      <stop offset="60%" stop-color="#00e5ff" stop-opacity="0.25"/>
      <stop offset="100%" stop-color="#00e5ff" stop-opacity="0"/>
    </radialGradient>
    <radialGradient id="halo-yellow" cx="35%" cy="55%" r="35%">
      <stop offset="0%" stop-color="#ffd34d" stop-opacity="0.7"/>
      <stop offset="60%" stop-color="#ffd34d" stop-opacity="0.25"/>
      <stop offset="100%" stop-color="#ffd34d" stop-opacity="0"/>
    </radialGradient>

    <!-- Soft blobs -->
    <radialGradient id="blob1" cx="0.5" cy="0.5" r="0.5">
      <stop offset="0%" stop-color="#ff8fb3" stop-opacity="0.8"/>
      <stop offset="100%" stop-color="#ff8fb3" stop-opacity="0"/>
    </radialGradient>
    <radialGradient id="blob2" cx="0.5" cy="0.5" r="0.5">
      <stop offset="0%" stop-color="#b794ff" stop-opacity="0.8"/>
      <stop offset="100%" stop-color="#b794ff" stop-opacity="0"/>
    </radialGradient>
    <radialGradient id="blob3" cx="0.5" cy="0.5" r="0.5">
      <stop offset="0%" stop-color="#75f0ff" stop-opacity="0.8"/>
      <stop offset="100%" stop-color="#75f0ff" stop-opacity="0"/>
    </radialGradient>
  </defs>

  <!-- Base -->
  <rect width="100%" height="100%" fill="url(#base)"/>
  <!-- Halos -->
  <rect width="100%" height="100%" fill="url(#halo-pink)"/>
  <rect width="100%" height="100%" fill="url(#halo-purple)"/>
  <rect width="100%" height="100%" fill="url(#halo-cyan)"/>
  <rect width="100%" height="100%" fill="url(#halo-yellow)"/>

  <!-- Blobs -->
  <g opacity="0.65">
    <ellipse cx="260" cy="640" rx="220" ry="140" fill="url(#blob1)"/>
    <ellipse cx="1180" cy="660" rx="260" ry="160" fill="url(#blob2)"/>
    <ellipse cx="760" cy="240" rx="240" ry="140" fill="url(#blob3)"/>
  </g>

  <!-- Fine contour lines for editorial feel -->
  <g opacity="0.28" fill="none" stroke="#ffffff">
    <path d="M-40 760 C 240 680, 560 920, 900 820 S 1520 820, 1520 820"/>
    <path d="M-40 700 C 260 620, 520 880, 860 780 S 1520 780, 1520 780"/>
    <path d="M-40 830 C 220 770, 520 950, 900 880 S 1520 860, 1520 860"/>
  </g>
</svg>

